<?xml version="1.0" encoding="UTF-8" standalone="no"?>
<!DOCTYPE svg PUBLIC "-//W3C//DTD SVG 1.1//EN" "http://www.w3.org/Graphics/SVG/1.1/DTD/svg11.dtd">
<svg width="100%" height="100%" viewBox="0 0 191 196" version="1.1" xmlns="http://www.w3.org/2000/svg" xmlns:xlink="http://www.w3.org/1999/xlink" xml:space="preserve" xmlns:serif="http://www.serif.com/" style="fill-rule:evenodd;clip-rule:evenodd;">
    <g id="Plan-de-travail1" serif:id="Plan de travail1" transform="matrix(0.690254,0,0,0.742657,74.5787,49.9498)">
        <rect x="-108.045" y="-67.258" width="276.225" height="263.686" style="fill:none;"/>
        <g transform="matrix(0,-1.34652,-1.44874,0,32.5155,-40.9604)">
            <circle cx="-78.592" cy="0" r="78.592" style="fill:none;stroke:rgb(35,31,32);stroke-width:1px;"/>
        </g>
        <g transform="matrix(0,1.34652,1.44874,0,35.6386,-43.862)">
            <path d="M-2.156,-2.156L2.156,-2.156" style="fill:none;fill-rule:nonzero;stroke:rgb(35,31,32);stroke-width:1px;"/>
        </g>
        <g transform="matrix(0,1.34652,1.44874,0,35.6386,173.995)">
            <path d="M-2.156,-2.156L2.156,-2.156" style="fill:none;fill-rule:nonzero;stroke:rgb(35,31,32);stroke-width:1px;"/>
        </g>
        <g transform="matrix(1.44874,0,0,1.34652,-87.8049,65.0648)">
            <path d="M0,0L4.311,0" style="fill:none;fill-rule:nonzero;stroke:rgb(35,31,32);stroke-width:1px;"/>
        </g>
        <g transform="matrix(1.44874,0,0,1.34652,146.592,65.0648)">
            <path d="M0,0L4.311,0" style="fill:none;fill-rule:nonzero;stroke:rgb(35,31,32);stroke-width:1px;"/>
        </g>
        <g transform="matrix(1.44874,0,0,1.34652,-107.005,-66.7656)">
            <text x="92.276px" y="194.021px" style="font-family:'MyriadPro-Bold', 'Myriad Pro', sans-serif;font-weight:700;font-size:15px;fill:rgb(35,31,32);">S</text>
        </g>
        <g transform="matrix(1.44874,0,0,1.34652,-107.005,-66.7656)">
            <text x="181.316px" y="103.75px" style="font-family:'MyriadPro-Bold', 'Myriad Pro', sans-serif;font-weight:700;font-size:15px;fill:rgb(35,31,32);">E</text>
        </g>
        <g transform="matrix(1.44874,0,0,1.34652,-107.005,-66.7656)">
            <text x="0px" y="102.889px" style="font-family:'MyriadPro-Bold', 'Myriad Pro', sans-serif;font-weight:700;font-size:15px;fill:rgb(35,31,32);">W</text>
        </g>
        <g transform="matrix(1.44874,0,0,1.34652,-107.005,-66.7656)">
            <text x="91.276px" y="12.555px" style="font-family:'MyriadPro-Bold', 'Myriad Pro', sans-serif;font-weight:700;font-size:15px;fill:rgb(35,31,32);">N</text>
        </g>
    </g>
</svg>
