<?xml version="1.0" encoding="UTF-8" standalone="no"?>
<!DOCTYPE svg PUBLIC "-//W3C//DTD SVG 1.1//EN" "http://www.w3.org/Graphics/SVG/1.1/DTD/svg11.dtd">
<svg width="100%" height="100%" viewBox="0 0 24 24" version="1.1" xmlns="http://www.w3.org/2000/svg" xmlns:xlink="http://www.w3.org/1999/xlink" xml:space="preserve" xmlns:serif="http://www.serif.com/" style="fill-rule:evenodd;clip-rule:evenodd;stroke-linejoin:round;stroke-miterlimit:2;">
    <g transform="matrix(0.766044,-0.642788,0.642788,0.766044,-4.91857,10.3221)">
        <g transform="matrix(1.52017,1.11022e-16,-1.11022e-16,1.06768,-5.76285,-0.823955)">
            <rect x="10.719" y="3.704" width="1.471" height="16.82" style="fill:rgb(128,204,40);"/>
        </g>
        <g transform="matrix(1.07506,2.22045e-16,1.11022e-16,1.61684,-0.299704,-7.84385)">
            <rect x="12.317" y="11.619" width="7.307" height="1.497" style="fill:rgb(128,204,40);"/>
        </g>
    </g>
    <path d="M11.911,0.875C18.065,0.875 23.061,5.871 23.061,12.025C23.061,18.179 18.065,23.175 11.911,23.175C5.757,23.175 0.761,18.179 0.761,12.025C0.761,5.871 5.757,0.875 11.911,0.875ZM11.981,2.306C17.342,2.306 21.694,6.658 21.694,12.019C21.694,17.38 17.342,21.732 11.981,21.732C6.62,21.732 2.268,17.38 2.268,12.019C2.268,6.658 6.62,2.306 11.981,2.306Z" style="fill:rgb(128,204,40);"/>
</svg>
